<?xml version="1.0" standalone="no"?>
<!DOCTYPE svg PUBLIC "-//W3C//DTD SVG 20010904//EN"
 "http://www.w3.org/TR/2001/REC-SVG-20010904/DTD/svg10.dtd">
<svg version="1.0" xmlns="http://www.w3.org/2000/svg"
 width="512.000000pt" height="512.000000pt" viewBox="0 0 512.000000 512.000000"
 preserveAspectRatio="xMidYMid meet">

<g transform="translate(0.000000,512.000000) scale(0.100000,-0.100000)"
fill="#000000" stroke="none">
<path d="M3045 5073 c-171 -75 -310 -164 -479 -307 l-47 -39 -22 20 c-57 53
-114 57 -158 14 -46 -46 -38 -110 19 -158 20 -17 24 -26 17 -37 -5 -8 -38 -55
-73 -105 -34 -50 -145 -247 -247 -438 l-184 -348 -443 -6 c-322 -4 -454 -9
-483 -18 -76 -24 -158 -75 -216 -134 -54 -53 -74 -88 -215 -370 -86 -172 -199
-392 -251 -489 -112 -211 -154 -308 -194 -448 -195 -693 53 -1432 624 -1858
234 -174 453 -269 762 -330 70 -14 289 -16 1838 -19 l1758 -4 35 35 c36 36 43
70 23 108 -16 31 -1076 1295 -1128 1346 -24 24 -63 56 -86 72 l-43 29 5 88 c3
49 0 142 -6 208 -25 250 -79 429 -203 670 -48 94 -171 335 -272 536 -170 336
-190 372 -244 426 -111 110 -227 153 -419 153 -62 0 -113 3 -113 7 0 12 191
366 221 410 l31 45 22 -20 c58 -53 105 -55 152 -8 50 50 45 103 -14 154 l-27
23 35 31 c78 68 186 132 323 192 47 20 61 32 73 61 17 43 22 23 -73 290 -43
121 -84 220 -97 233 -40 41 -79 38 -201 -15z m109 -284 c19 -52 37 -102 41
-111 5 -13 -7 -24 -57 -49 -81 -41 -168 -99 -240 -160 l-57 -49 -87 82 -87 83
58 52 c76 69 186 145 298 203 50 27 93 48 94 46 1 -1 18 -45 37 -97z m-531
-438 l81 -79 -45 -69 c-25 -37 -101 -173 -169 -301 l-123 -232 -134 0 c-73 0
-133 2 -133 5 0 3 66 130 146 282 142 269 265 473 285 473 5 0 46 -35 92 -79z
m279 -914 c31 -15 72 -45 92 -67 28 -31 246 -443 246 -465 0 -3 -589 -5 -1310
-5 -720 0 -1310 2 -1310 5 0 3 48 101 106 218 106 213 147 271 209 305 79 41
72 41 1010 39 l900 -2 57 -28z m534 -917 l94 -175 -123 -11 c-295 -27 -514
-107 -726 -264 -144 -107 -104 -61 -1134 -1294 -209 -250 -259 -324 -293 -426
-10 -30 -19 -56 -20 -58 -1 -2 -43 15 -93 36 -465 201 -791 597 -904 1100 -29
132 -32 461 -4 592 39 189 131 410 261 633 l28 47 1410 -2 1410 -3 94 -175z
m134 -1041 c94 -15 213 -76 277 -141 28 -29 254 -296 502 -593 l452 -540 -656
-3 c-360 -1 -950 -1 -1311 0 l-656 3 447 535 c246 294 468 557 494 583 84 88
175 138 284 156 73 12 93 12 167 0z"/>
</g>
</svg>
